<svg width="12" height="16" viewBox="0 0 12 16" fill="none" xmlns="http://www.w3.org/2000/svg">
<path d="M6 8.66656C7.10457 8.66656 8 7.77113 8 6.66656C8 5.562 7.10457 4.66656 6 4.66656C4.89543 4.66656 4 5.562 4 6.66656C4 7.77113 4.89543 8.66656 6 8.66656Z" stroke="#6C757D" stroke-linecap="round" stroke-linejoin="round"/>
<path d="M6.00007 1.33328C4.58558 1.33328 3.22902 1.89519 2.22883 2.89538C1.22864 3.89557 0.666733 5.25213 0.666733 6.66662C0.666733 7.92795 0.934733 8.75328 1.66673 9.66662L6.00007 14.6666L10.3334 9.66662C11.0654 8.75328 11.3334 7.92795 11.3334 6.66662C11.3334 5.25213 10.7715 3.89557 9.7713 2.89538C8.77111 1.89519 7.41455 1.33328 6.00007 1.33328V1.33328Z" stroke="#6C757D" stroke-linecap="round" stroke-linejoin="round"/>
</svg>
